<svg viewBox="0 0 64 64" width="64" height="64" xmlns="http://www.w3.org/2000/svg" role="img" aria-label="PC Build Hub">
  <defs>
    <linearGradient id="bg" x2="0" y2="1">
      <stop offset="0" stop-color="#1c2746"/>
      <stop offset="1" stop-color="#0a0f1e"/>
    </linearGradient>
    <linearGradient id="case" x2="1" y2="1">
      <stop offset="0" stop-color="#313d5b"/>
      <stop offset="1" stop-color="#19212f"/>
    </linearGradient>
    <linearGradient id="rgb" x2="1" y2="1">
      <stop offset="0" stop-color="#22d3ee"/>
      <stop offset="0.5" stop-color="#818cf8"/>
      <stop offset="1" stop-color="#f472d0"/>
    </linearGradient>
  </defs>
  <rect x="0" y="0" width="64" height="64" rx="14" fill="url(#bg)"/>
  <rect x="19" y="9" width="26" height="46" rx="5" fill="url(#case)" stroke="#46557d" stroke-width="1"/>
  <rect x="19" y="9" width="7" height="46" rx="5" fill="#131a2b"/>
  <circle cx="22.5" cy="15" r="2" fill="none" stroke="#4dd6ee" stroke-width="1.2"/>
  <line x1="22.5" y1="12.6" x2="22.5" y2="15" stroke="#4dd6ee" stroke-width="1.2" stroke-linecap="round"/>
  <rect x="20" y="20" width="5" height="1" rx="0.5" fill="#33405e"/>
  <rect x="20" y="22.5" width="5" height="1" rx="0.5" fill="#33405e"/>
  <rect x="20" y="25" width="5" height="1" rx="0.5" fill="#33405e"/>
  <rect x="27" y="12" width="16" height="40" rx="3" fill="#7fb4ff" opacity="0.10"/>
  <polygon points="31,13 34,13 29,29 26.5,29" fill="#ffffff" opacity="0.05"/>
  <circle cx="35" cy="24" r="9" fill="url(#rgb)" opacity="0.16"/>
  <circle cx="35" cy="24" r="6" fill="none" stroke="url(#rgb)" stroke-width="2"/>
  <line x1="35" y1="21.5" x2="35" y2="19.3" stroke="#c2cdf2" stroke-width="0.9" stroke-linecap="round"/>
  <line x1="33" y1="25.2" x2="31.1" y2="26.3" stroke="#c2cdf2" stroke-width="0.9" stroke-linecap="round"/>
  <line x1="37" y1="25.2" x2="38.9" y2="26.3" stroke="#c2cdf2" stroke-width="0.9" stroke-linecap="round"/>
  <circle cx="35" cy="24" r="1.7" fill="#d9e1fb"/>
  <rect x="27" y="38" width="16" height="6" rx="1.5" fill="#1e2742" stroke="#3a466a" stroke-width="0.8"/>
  <rect x="27" y="38" width="16" height="1.8" rx="0.9" fill="url(#rgb)"/>
  <circle cx="32" cy="41.4" r="1" fill="#33405e"/>
  <circle cx="38" cy="41.4" r="1" fill="#33405e"/>
</svg>